<svg version="1" xmlns="http://www.w3.org/2000/svg" width="346.667" height="346.667" viewBox="0 0 260.000000 260.000000"><path d="M10.9 2.8C6.6 5 5 6.6 2.8 10.9L0 16.2v227.6l2.8 5.3c2.2 4.3 3.8 5.9 8.1 8.1l5.3 2.8h227.6l5.3-2.8c4.3-2.2 5.9-3.8 8.1-8.1l2.8-5.3V16.2l-2.8-5.3c-2.2-4.3-3.8-5.9-8.1-8.1L243.8 0H16.2l-5.3 2.8zM41 15.5c11.4 1.9 24.9 6.3 32.7 10.7 8.6 4.9 18.5 14.7 22.6 22.6 5 9.6 6.7 17 6.7 30.1 0 20.8-4.7 33.8-16.6 45.9-10.5 10.5-21.6 15.4-43.9 19l-5 .8 7 2.3c12 4.1 17.3 6.8 22.4 11.6 12.2 11.4 17.2 29 18.7 65.7.6 14.7.5 17-1 19.2-1.8 2.8-5.7 3.5-7.4 1.3-.5-.6-1.3-9.1-1.6-18.7-1.8-46.1-8.4-60.8-30.3-68-3.8-1.3-9.6-3.5-13-5.1l-6.3-2.8v46.8c0 35-.3 47-1.2 47.9-1.7 1.7-4.8 1.5-7-.5-1.7-1.5-1.8-6.4-1.8-114.1 0-103.3.1-112.7 1.7-114.4 2.1-2.3 10.1-2.4 23.3-.3zm144.9 32.9c14.9 7.8 27.9 35.5 39.5 84.6 7 29.7 11.4 55.1 18.1 105.1.8 6.1-5 10.6-8.4 6.5-.7-.8-2.3-9.7-3.7-19.8-2-15.2-4.5-30.8-9.1-57.6l-.6-3.2h-42.9c-33.4 0-43 .3-43.3 1.2-.9 2.6-5.4 35.9-7.6 56.3-2.3 21.9-3.1 24.5-7.4 24.5-5.3 0-5.5-2.7-2-32.5 10.1-87.1 24.9-141.9 43.3-159.8 2.7-2.7 6.7-5.5 8.8-6.3 4.4-1.6 11-1.2 15.3 1z"/><path d="M26.2 78.7l.3 54.8 10-.2c29.5-.4 49.4-14 55-37.4 1.9-8.4 1.9-24.8 0-32.4-5.3-20.2-22.7-33-51.9-38-4.9-.8-9.9-1.5-11.2-1.5H26l.2 54.7zm33.7-26.6c9.6 4.8 13.7 12.8 12.9 24.8-.8 10.6-5 17-13.8 21-4 1.8-12 2.9-12 1.6 0-.2 1.8-2.8 4-5.7 9.4-12.5 9.5-27 .1-38.8-4.5-5.8-4.6-6-.8-6 1.9 0 6.2 1.4 9.6 3.1zM174.3 57.2c-9 2.4-20.3 25.1-28.4 57.2-3.4 13.7-7.9 34.9-7.9 37.7 0 1.8 1.7 1.9 40.5 1.9H219v-2.1c0-3.7-8.7-37.9-13-50.9-7.6-23.3-18.2-41.2-25.8-43.7-1.5-.6-4-.6-5.9-.1zm9.2 25.6c7.1 4.4 12.6 21.5 14.8 46.4.2 2.1.1 3.8-.1 3.8s-1.8-1.1-3.5-2.4c-12.7-9.5-24-9.3-35.3.6l-3.6 3.2.7-6c2.7-24.6 6.9-38.3 13.7-44.6 3.6-3.4 8.8-3.7 13.3-1z"/></svg>